<?xml version="1.0" encoding="UTF-8" standalone="no"?><!DOCTYPE svg PUBLIC "-//W3C//DTD SVG 1.1//EN" "http://www.w3.org/Graphics/SVG/1.1/DTD/svg11.dtd"><svg width="100%" height="100%" viewBox="0 0 150 150" version="1.1" xmlns="http://www.w3.org/2000/svg" xmlns:xlink="http://www.w3.org/1999/xlink" xml:space="preserve" style="fill-rule:evenodd;clip-rule:evenodd;stroke-linejoin:round;stroke-miterlimit:1.41421;"><path id="icn_svg" d="M75,0c41.394,0 75,33.606 75,75c0,41.394 -33.606,75 -75,75c-41.394,0 -75,-33.606 -75,-75c0,-41.394 33.606,-75 75,-75Zm-26.207,72.99l7.879,0l6.244,-13.39l8.188,0l-6.243,13.39l7.879,0l6.244,-13.39l8.188,0l-6.244,13.39l7.88,0l6.243,-13.39l8.189,0l-6.244,13.39l7.879,0l6.244,-13.39c0,0 0.002,0 0.007,0c3.564,0 6.454,2.89 6.454,6.455l0,38.386c0,2.274 -0.903,4.454 -2.511,6.061c-1.607,1.608 -3.787,2.511 -6.061,2.511c-15.44,0 -47.754,0 -63.195,0c-2.273,0 -4.453,-0.903 -6.061,-2.511c-1.607,-1.607 -2.51,-3.787 -2.51,-6.061c0,-11.758 0,-31.451 0,-31.451l0,-7.141c3.639,0 6.646,-2.728 7.085,-6.249l10.71,0l-6.244,13.39Zm36.12,17.497c0.532,0.405 0.845,1.036 0.845,1.705c0,0.669 -0.313,1.299 -0.845,1.705c-2.444,1.86 -6.386,4.863 -9.223,7.023c-0.648,0.494 -1.52,0.577 -2.25,0.216c-0.73,-0.362 -1.191,-1.106 -1.191,-1.92c0,-4.033 0,-10.015 0,-14.048c0,-0.814 0.461,-1.559 1.191,-1.92c0.73,-0.362 1.602,-0.278 2.25,0.215c2.837,2.161 6.779,5.163 9.223,7.024Zm-47.671,-36.497c2.661,0 4.821,2.161 4.821,4.822c0,2.661 -2.16,4.821 -4.821,4.821c-2.661,0 -4.822,-2.16 -4.822,-4.821c0,-2.661 2.161,-4.822 4.822,-4.822Zm18.332,3.825l-7.395,-11.387c0,0 -5.087,0.715 -8.676,1.22c-0.919,0.129 -1.75,0.618 -2.309,1.36c-0.559,0.741 -0.8,1.675 -0.671,2.594c0,0 0,0 0,0c0.236,-0.023 0.476,-0.035 0.719,-0.035c3.639,0 6.646,2.727 7.085,6.248l11.247,0Zm14.207,0l2.892,-0.406l-8.582,-13.217l-8.109,1.14l8.065,12.418l-0.101,0.065l5.835,0Zm18.804,-2.643l-8.109,1.14l-8.583,-13.216l8.109,-1.14l8.583,13.216Zm15.911,-2.236l-8.109,1.14l-8.582,-13.217l8.108,-1.139l8.583,13.216Zm-0.78,-14.313c0,0 1.476,-0.207 3.388,-0.476c4.688,-0.659 9.022,2.607 9.681,7.295c0.018,0.126 0.035,0.251 0.053,0.376c0.197,1.4 -0.171,2.821 -1.022,3.95c-0.851,1.13 -2.116,1.875 -3.516,2.071c-0.001,0.001 -0.001,0.001 -0.001,0.001l-8.583,-13.217Z" style="fill:#fff;"/></svg>